<svg width="3054" height="891" viewBox="0 0 3054 891" fill="none" xmlns="http://www.w3.org/2000/svg">
<path d="M2824.5 0H206.915C199.098 0 191.282 0 183.249 0C176.518 0 170.004 0.217119 163.274 0.217119C148.727 0.651358 134.18 1.51983 119.85 4.12526C105.303 6.7307 91.8414 11.0731 78.5971 17.8038C65.57 24.3174 53.6284 33.0021 43.4238 43.4238C33.0021 53.6284 24.3173 65.57 17.8038 78.5971C11.0731 91.8414 6.73069 105.303 4.12526 119.85C1.51983 134.18 0.651358 148.727 0.217119 163.274C0.217119 170.004 0 176.735 0 183.249C0 191.065 0 199.098 0 206.915V661.345C0 669.378 0 677.195 0 685.011C0 691.742 0.217119 698.255 0.434238 704.986C0.868477 719.533 1.73695 734.08 4.34238 748.41C6.94781 762.957 11.0731 776.635 18.0209 789.662C24.5345 802.69 33.2192 814.414 43.641 824.619C53.8456 835.04 65.7871 843.725 78.8143 850.239C92.0585 856.969 105.52 861.312 120.067 863.917C134.397 866.523 149.161 867.391 163.491 867.825C170.004 868.26 176.518 868.477 183.249 868.477C191.282 868.477 199.098 868.477 206.915 868.477H2824.5C2832.32 868.477 2840.14 868.477 2847.95 868.477C2854.47 868.477 2861.41 868.477 2867.93 868.26C2882.47 867.825 2897.02 866.957 2911.35 864.352C2925.9 861.746 2939.36 857.404 2952.82 850.673C2965.85 844.159 2977.57 835.475 2987.99 825.053C2998.42 814.848 3006.88 802.907 3013.61 790.097C3020.34 776.852 3024.69 763.391 3027.08 748.844C3029.68 734.514 3030.55 719.967 3031.2 705.42C3031.2 698.69 3031.2 692.176 3031.2 685.445C3031.42 677.629 3031.42 669.813 3031.42 661.779V207.132C3031.42 199.098 3031.42 191.282 3031.2 183.466C3031.2 176.735 3031.2 170.221 3031.2 163.491C3030.77 148.944 3029.9 134.397 3027.08 120.067C3024.69 105.52 3020.34 92.0585 3013.61 78.8143C3006.88 65.7871 2998.2 53.8456 2987.99 43.641C2977.79 33.4364 2965.85 24.7516 2952.82 18.0209C2939.36 11.2902 2925.9 6.94781 2911.35 4.34238C2897.02 1.73695 2882.47 0.868477 2867.93 0.434238C2861.41 0.434238 2854.47 0.217119 2847.95 0.217119C2840.35 0 2832.32 0 2824.5 0Z" fill="#A6A6A6"/>
<path d="M183.248 849.37C176.734 849.37 170.221 849.37 163.707 849.153C151.548 848.719 137.219 848.068 123.106 845.679C109.862 843.291 98.1372 839.383 87.0641 833.738C75.7739 828.093 65.5693 820.493 56.6674 811.592C47.7655 802.69 40.3835 792.702 34.5213 781.195C28.8762 770.339 24.968 758.397 22.7968 745.153C20.1914 730.606 19.54 715.625 19.1058 704.335C18.8887 699.775 18.8887 684.577 18.8887 684.577V183.249C18.8887 183.249 19.1058 168.267 19.1058 163.925C19.54 152.635 20.1914 137.654 22.7968 123.324C25.1851 109.862 29.0933 98.1378 34.7384 87.2819C40.6006 75.9917 47.9826 65.7871 56.8845 56.8852C65.7864 47.7662 75.991 40.3841 87.0641 34.739C98.1372 29.0939 110.079 25.1858 122.889 23.0146C137.653 20.192 152.417 19.5407 163.707 19.3236L183.248 19.1064H2847.95L2867.71 19.3236C2878.78 19.5407 2893.76 20.192 2908.09 22.7975C2921.12 25.1858 2933.06 28.8768 2944.35 34.739C2955.43 40.3841 2965.63 47.9833 2974.53 56.8852C2983.43 65.7871 2990.82 75.9917 2996.68 87.2819C3002.32 98.3549 3006.01 110.079 3008.4 123.107C3011.01 136.785 3011.66 150.898 3012.09 164.142C3012.09 170.221 3012.09 176.952 3012.09 183.466C3012.31 191.716 3012.31 199.315 3012.31 207.132V661.562C3012.31 669.378 3012.31 677.195 3012.09 685.011C3012.09 692.176 3012.09 698.472 3012.09 705.203C3011.66 718.013 3010.79 732.126 3008.4 745.37C3006.23 758.614 3002.32 770.556 2996.68 781.629C2990.82 792.919 2983.43 803.124 2974.53 811.809C2965.63 820.928 2955.43 828.31 2944.14 833.955C2932.85 839.6 2921.34 843.508 2907.88 845.896C2893.98 848.502 2879.65 849.153 2867.28 849.37C2860.98 849.587 2854.25 849.587 2847.73 849.587H2824.29L183.248 849.37Z" fill="#25D1DA"/>
<path fill-rule="evenodd" clip-rule="evenodd" d="M2377.21 329.394C2381.13 333.358 2383.11 338.601 2383.11 345.103C2383.11 351.605 2381.13 356.848 2377.21 360.811C2373.26 364.774 2367.83 366.756 2360.9 366.756C2353.96 366.756 2348.54 364.774 2344.59 360.811C2340.65 356.848 2338.7 351.605 2338.7 345.103C2338.7 338.601 2340.65 333.358 2344.59 329.394C2348.54 325.431 2353.96 323.43 2360.9 323.43C2367.83 323.43 2373.26 325.431 2377.21 329.394ZM2371.28 399.266C2376.07 399.266 2378.45 401.659 2378.45 406.489V575.107C2378.45 579.937 2376.07 582.352 2371.28 582.352H2350.15C2345.38 582.352 2342.98 579.937 2342.98 575.107V406.489C2342.98 401.659 2345.38 399.266 2350.15 399.266H2371.28ZM2466.09 439.888C2457.25 450.125 2452.84 466.431 2452.84 488.827V493.513C2452.84 515.413 2457.31 531.472 2466.27 541.71C2475.24 551.947 2489.37 557.067 2508.74 557.067C2518.77 557.067 2529.5 555.395 2540.97 552.009C2543.6 551.288 2545.4 550.916 2546.34 550.916C2549.45 550.916 2551 553.331 2551 558.14V567.883C2551 571.02 2550.54 573.311 2549.56 574.757C2548.62 576.201 2546.7 577.522 2543.85 578.74C2532.11 583.776 2518.52 586.315 2502.99 586.315C2474.8 586.315 2453.25 578.183 2438.33 561.939C2423.38 545.693 2415.93 522.162 2415.93 491.346C2415.93 460.776 2423.62 437.121 2439.03 420.382C2454.45 403.662 2476.24 395.303 2504.42 395.303C2517.31 395.303 2529.98 397.594 2542.39 402.155C2545.02 403.125 2546.88 404.322 2547.95 405.768C2549.02 407.212 2549.56 409.627 2549.56 412.991V422.735C2549.56 427.565 2548.01 429.958 2544.92 429.958C2543.72 429.958 2541.8 429.608 2539.17 428.865C2529.37 425.995 2519.47 424.531 2509.43 424.531C2489.37 424.531 2474.93 429.649 2466.09 439.888ZM1918.89 582.352C1914.12 582.352 1911.73 579.937 1911.73 575.107V458.113C1911.73 446.08 1909.46 437.183 1904.92 431.404C1900.37 425.624 1893.22 422.735 1883.43 422.735C1865.99 422.735 1848.45 428.162 1830.75 438.979C1831 440.671 1831.12 442.467 1831.12 444.408V575.107C1831.12 579.937 1828.72 582.352 1823.96 582.352H1802.81C1798.04 582.352 1795.64 579.937 1795.64 575.107V458.113C1795.64 446.08 1793.37 437.183 1788.85 431.404C1784.29 425.624 1777.14 422.735 1767.34 422.735C1749.18 422.735 1731.75 428.039 1715.03 438.627V575.107C1715.03 579.937 1712.65 582.352 1707.88 582.352H1686.73C1681.95 582.352 1679.58 579.937 1679.58 575.107V406.489C1679.58 401.659 1681.95 399.266 1686.73 399.266H1702.49C1704.88 399.266 1706.74 399.74 1708.07 400.71C1709.37 401.659 1710.27 403.477 1710.74 406.118L1712.9 417.677C1735.82 401.783 1758.16 393.837 1779.9 393.837C1802.1 393.837 1817.15 402.402 1825.04 419.493C1848.66 402.402 1872.32 393.837 1895.97 393.837C1912.45 393.837 1925.11 398.543 1933.96 407.935C1942.79 417.326 1947.22 430.681 1947.22 448.02V575.107C1947.22 579.937 1944.82 582.352 1940.05 582.352H1918.89ZM2111 406.489C2111 401.659 2113.39 399.266 2118.19 399.266H2139.32C2144.09 399.266 2146.48 401.659 2146.48 406.489V575.107C2146.48 579.937 2144.09 582.352 2139.32 582.352H2123.91C2121.53 582.352 2119.67 581.856 2118.34 580.908C2117.04 579.937 2116.14 578.121 2115.66 575.478L2113.14 562.846C2090.96 579.441 2068.12 587.761 2044.74 587.761C2027.78 587.761 2014.74 582.931 2005.67 573.311C1996.58 563.693 1992.06 550.09 1992.06 532.503V406.489C1992.06 401.659 1994.43 399.266 1999.23 399.266H2020.36C2025.13 399.266 2027.53 401.659 2027.53 406.489V520.966C2027.53 533.949 2030.04 543.526 2035.05 549.656C2040.07 555.808 2048.06 558.863 2059.06 558.863C2076.26 558.863 2093.57 553.084 2111 541.544V406.489ZM2269.62 553.084C2275.72 548.522 2278.75 541.896 2278.75 533.226C2278.75 527.447 2276.9 522.761 2273.2 519.15C2269.5 515.536 2262.75 511.925 2252.95 508.313L2222.5 496.754C2195.99 486.888 2182.73 470.023 2182.73 446.204C2182.73 430.557 2188.75 417.925 2200.82 408.285C2212.88 398.667 2228.72 393.837 2248.3 393.837C2263.83 393.837 2278.97 396.623 2293.8 402.155C2296.66 403.125 2298.71 404.384 2299.88 405.954C2301.08 407.522 2301.68 409.855 2301.68 412.991V422.735C2301.68 427.069 2300.13 429.237 2297.02 429.237C2295.36 429.237 2292.59 428.638 2288.79 427.441C2276.12 423.58 2263.23 421.66 2250.1 421.66C2227.17 421.66 2215.68 429.484 2215.68 445.109C2215.68 451.384 2217.6 456.317 2221.43 459.929C2225.25 463.542 2232.76 467.505 2244.01 471.84L2271.96 482.677C2286.03 488.208 2296.18 494.772 2302.41 502.368C2308.62 509.943 2311.71 519.747 2311.71 531.782C2311.71 548.893 2305.38 562.474 2292.72 572.59C2280.05 582.703 2263.23 587.761 2242.22 587.761C2222.16 587.761 2204.1 584.395 2188.11 577.646C2185.25 576.449 2183.27 575.107 2182.18 573.683C2181.13 572.238 2180.57 569.947 2180.57 566.809V556.695C2180.57 552.361 2182.03 550.193 2184.89 550.193C2186.55 550.193 2189.54 550.916 2193.83 552.361C2209.6 557.418 2225.96 559.957 2242.93 559.957C2254.62 559.957 2263.54 557.666 2269.62 553.084ZM1212.76 618.537C1204.79 608.258 1160.1 613.665 1140.02 616.08C1133.93 616.823 1132.98 611.456 1138.47 607.576C1174.14 582.352 1232.55 589.639 1239.34 598.08C1246.2 606.606 1237.55 665.661 1204.13 693.814C1198.99 698.149 1194.12 695.858 1196.39 690.12C1203.9 671.192 1220.74 628.836 1212.76 618.537ZM1186.83 648.362C1124.54 694.703 1034.23 719.348 956.455 719.348C847.45 719.348 749.301 678.726 675.013 611.146C669.192 605.843 674.394 598.576 681.413 602.684C761.542 649.684 860.639 677.983 962.999 677.983C1032.04 677.983 1107.94 663.555 1177.79 633.686C1188.32 629.188 1197.15 640.684 1186.83 648.362ZM619.777 500.489V493.244C595.772 493.244 570.404 498.425 570.404 526.91C570.404 541.38 577.877 551.164 590.591 551.164C599.9 551.164 608.301 545.363 613.565 535.971C620.087 524.371 619.777 513.515 619.777 500.489ZM653.237 582.022C651.048 584.024 647.87 584.148 645.393 582.807C634.371 573.58 632.389 569.308 626.363 560.515C608.157 579.215 595.255 584.829 571.663 584.829C543.715 584.829 522 567.45 522 532.711C522 505.567 536.574 487.093 557.38 478.032C575.378 470.085 600.541 468.62 619.777 466.453V462.096C619.777 454.15 620.396 444.738 615.752 437.864C611.707 431.692 603.946 429.175 597.113 429.175C584.461 429.175 573.191 435.697 570.446 449.258C569.867 452.272 567.679 455.245 564.687 455.409L532.507 451.879C529.802 451.26 526.768 449.072 527.553 444.882C534.942 405.56 570.176 393.693 601.779 393.693C617.919 393.693 639.035 398.027 651.751 410.35C667.892 425.541 666.344 445.811 666.344 467.917V520.017C666.344 535.683 672.805 542.557 678.874 550.998C680.979 554.053 681.453 557.666 678.77 559.895C671.979 565.612 659.925 576.159 653.32 582.104L653.237 582.022ZM1054.81 500.489V493.244C1030.81 493.244 1005.46 498.425 1005.46 526.91C1005.46 541.38 1012.89 551.164 1025.62 551.164C1034.93 551.164 1043.31 545.363 1048.6 535.971C1055.12 524.371 1054.81 513.515 1054.81 500.489ZM1088.27 582.022C1086.06 584.024 1082.9 584.148 1080.43 582.807C1069.4 573.58 1067.42 569.308 1061.4 560.515C1043.19 579.215 1030.29 584.829 1006.68 584.829C978.748 584.829 957.012 567.45 957.012 532.711C957.012 505.567 971.606 487.093 992.412 478.032C1010.41 470.085 1035.55 468.62 1054.81 466.453V462.096C1054.81 454.15 1055.43 444.738 1050.76 437.864C1046.72 431.692 1038.98 429.175 1032.15 429.175C1019.47 429.175 1008.24 435.697 1005.48 449.258C1004.9 452.272 1002.71 455.245 999.699 455.409L967.539 451.879C964.815 451.26 961.802 449.072 962.585 444.882C969.996 405.56 1005.23 393.693 1036.79 393.693C1052.95 393.693 1074.05 398.027 1086.78 410.35C1102.93 425.541 1101.38 445.811 1101.38 467.917V520.017C1101.38 535.683 1107.84 542.557 1113.89 550.998C1116.01 554.053 1116.49 557.666 1113.78 559.895C1107.01 565.612 1094.96 576.159 1088.33 582.104L1088.27 582.022ZM1496.97 582.456H1463.92C1460.57 582.25 1457.96 579.587 1457.96 576.305L1457.9 404.57C1458.17 401.433 1460.93 398.976 1464.27 398.976L1495.05 398.956C1497.96 399.12 1500.34 401.102 1500.95 403.765V430.02H1501.57C1510.87 406.531 1523.88 395.343 1546.79 395.343C1561.68 395.343 1576.23 400.772 1585.52 415.572C1594.19 429.299 1594.19 452.416 1594.19 469.032V577.048C1593.83 580.102 1591.11 582.456 1587.83 582.456H1554.57C1551.49 582.25 1549.02 579.979 1548.64 577.048V483.853C1548.64 465.069 1550.84 437.617 1527.9 437.617C1519.85 437.617 1512.42 443.024 1508.7 451.322C1504.06 461.809 1503.43 472.294 1503.43 483.853V576.283C1503.36 579.711 1500.51 582.456 1496.97 582.456ZM1357.51 430.392C1333.03 430.392 1331.49 463.976 1331.49 484.926C1331.49 505.876 1331.18 550.669 1357.2 550.669C1382.92 550.669 1384.15 514.546 1384.15 492.523C1384.15 478.073 1383.53 460.734 1379.19 447.009C1375.47 435.078 1368.04 430.392 1357.51 430.392ZM1357.2 395.343C1406.45 395.343 1433.08 437.968 1433.08 492.151C1433.08 544.538 1403.67 586.067 1357.2 586.067C1308.88 586.067 1282.54 543.444 1282.54 490.355C1282.54 436.894 1309.19 395.343 1357.2 395.343ZM743.872 582.456H710.681C707.523 582.25 705.005 579.855 704.736 576.8L704.778 405.149C704.778 401.721 707.626 398.976 711.176 398.976L742.076 398.956C745.318 399.12 747.897 401.597 748.104 404.735V427.131H748.744C756.794 405.458 771.965 395.343 792.42 395.343C813.164 395.343 826.168 405.458 835.457 427.131C843.528 405.458 861.796 395.343 881.322 395.343C895.255 395.343 910.426 401.124 919.734 414.127C930.261 428.576 928.094 449.526 928.094 467.959L928.054 576.283C928.054 579.711 925.205 582.456 921.654 582.456H888.525C885.181 582.25 882.56 579.587 882.56 576.305V485.298C882.56 478.073 883.18 460.013 881.611 453.139C879.134 441.58 871.704 438.318 862.105 438.318C854.055 438.318 845.696 443.747 842.29 452.416C838.862 461.086 839.172 475.534 839.172 485.298V576.283C839.172 579.711 836.323 582.456 832.794 582.456H799.645C796.301 582.25 793.68 579.587 793.68 576.305L793.638 485.298C793.638 466.143 796.734 437.968 773.203 437.968C749.343 437.968 750.272 465.42 750.272 485.298V576.283C750.272 579.711 747.401 582.456 743.872 582.456ZM1141.75 429.257V404.735C1141.79 401 1144.56 398.501 1147.92 398.523L1257.01 398.501C1260.5 398.501 1263.29 401.062 1263.29 404.693V425.727C1263.27 429.257 1260.31 433.859 1255.09 441.166L1198.58 522.472C1219.55 521.998 1241.74 525.156 1260.79 535.951C1265.1 538.386 1266.24 541.978 1266.59 545.529V571.701C1266.59 575.293 1262.67 579.483 1258.54 577.296C1224.98 559.586 1180.43 557.644 1143.3 577.522C1139.5 579.565 1135.54 575.438 1135.54 571.825V546.953C1135.54 542.969 1135.62 536.157 1139.6 530.088L1205.06 435.449L1148.07 435.429C1144.58 435.429 1141.79 432.931 1141.75 429.257Z" fill="#14191A"/>
<path d="M537.42 293.562V165.987H552.868V279.858H612.171V293.562H537.42ZM634.098 293.562V197.881H648.8V293.562H634.098ZM641.574 181.934C638.708 181.934 636.237 180.958 634.161 179.006C632.126 177.054 631.109 174.708 631.109 171.967C631.109 169.226 632.126 166.88 634.161 164.928C636.237 162.976 638.708 162 641.574 162C644.439 162 646.89 162.976 648.924 164.928C651.002 166.88 652.039 169.226 652.039 171.967C652.039 174.708 651.002 177.054 648.924 179.006C646.89 180.958 644.439 181.934 641.574 181.934ZM743.501 219.309L730.295 223.046C729.463 220.847 728.239 218.707 726.619 216.631C725.042 214.513 722.882 212.769 720.141 211.399C717.401 210.027 713.891 209.343 709.614 209.343C703.757 209.343 698.878 210.693 694.975 213.391C691.112 216.049 689.18 219.435 689.18 223.545C689.18 227.2 690.51 230.086 693.168 232.203C695.826 234.323 699.978 236.088 705.626 237.499L719.829 240.987C728.384 243.063 734.759 246.241 738.953 250.519C743.148 254.754 745.244 260.215 745.244 266.901C745.244 272.382 743.667 277.284 740.51 281.603C737.396 285.922 733.035 289.326 727.429 291.819C721.823 294.31 715.303 295.556 707.869 295.556C698.11 295.556 690.032 293.438 683.637 289.202C677.242 284.967 673.193 278.779 671.49 270.639L685.443 267.15C686.773 272.3 689.286 276.161 692.981 278.737C696.718 281.312 701.598 282.598 707.62 282.598C714.472 282.598 719.913 281.146 723.941 278.239C728.011 275.29 730.045 271.76 730.045 267.648C730.045 264.326 728.883 261.544 726.557 259.301C724.231 257.018 720.659 255.315 715.843 254.194L699.896 250.455C691.133 248.379 684.696 245.161 680.585 240.8C676.516 236.399 674.48 230.895 674.48 224.293C674.48 218.895 675.995 214.119 679.028 209.965C682.101 205.813 686.275 202.553 691.549 200.186C696.864 197.819 702.886 196.635 709.614 196.635C719.082 196.635 726.516 198.711 731.914 202.864C737.354 207.018 741.216 212.499 743.501 219.309ZM808.985 197.881V210.34H759.4V197.881H808.985ZM773.853 174.957H788.554V266.153C788.554 270.306 789.156 273.421 790.36 275.497C791.606 277.533 793.184 278.903 795.094 279.609C797.046 280.273 799.102 280.606 801.262 280.606C802.881 280.606 804.209 280.522 805.248 280.357C806.287 280.149 807.117 279.982 807.741 279.858L810.73 293.065C809.733 293.438 808.343 293.811 806.556 294.186C804.771 294.601 802.508 294.808 799.766 294.808C795.614 294.808 791.545 293.916 787.557 292.13C783.612 290.343 780.332 287.623 777.716 283.97C775.14 280.315 773.853 275.705 773.853 270.141V174.957ZM870.189 295.556C860.97 295.556 853.016 293.522 846.33 289.452C839.685 285.34 834.557 279.609 830.945 272.259C827.373 264.867 825.587 256.27 825.587 246.469C825.587 236.668 827.373 228.03 830.945 220.556C834.557 213.038 839.582 207.183 846.019 202.989C852.497 198.752 860.055 196.635 868.693 196.635C873.677 196.635 878.598 197.466 883.458 199.127C888.316 200.788 892.738 203.486 896.726 207.225C900.712 210.92 903.889 215.822 906.256 221.926C908.623 228.03 909.808 235.547 909.808 244.475V250.705H836.052V237.998H894.856C894.856 232.598 893.777 227.781 891.618 223.545C889.5 219.309 886.469 215.967 882.523 213.516C878.62 211.066 874.01 209.841 868.693 209.841C862.839 209.841 857.772 211.295 853.494 214.201C849.259 217.066 845.998 220.805 843.713 225.414C841.43 230.024 840.288 234.965 840.288 240.24V248.712C840.288 255.937 841.534 262.063 844.026 267.088C846.559 272.071 850.068 275.872 854.553 278.488C859.038 281.063 864.25 282.351 870.189 282.351C874.051 282.351 877.539 281.81 880.654 280.73C883.81 279.609 886.53 277.948 888.814 275.746C891.099 273.505 892.864 270.721 894.11 267.399L908.312 271.387C906.817 276.203 904.304 280.44 900.775 284.094C897.245 287.707 892.884 290.531 887.693 292.566C882.502 294.559 876.668 295.556 870.189 295.556ZM946.872 236.004V293.562H932.17V197.881H946.373V212.831H947.62C949.861 207.973 953.267 204.068 957.835 201.119C962.402 198.13 968.3 196.635 975.525 196.635C982.004 196.635 987.673 197.964 992.533 200.621C997.391 203.237 1001.17 207.225 1003.87 212.581C1006.57 217.898 1007.92 224.626 1007.92 232.765V293.562H993.217V233.761C993.217 226.245 991.265 220.39 987.362 216.195C983.458 211.959 978.101 209.841 971.29 209.841C966.598 209.841 962.402 210.858 958.707 212.893C955.052 214.928 952.166 217.898 950.049 221.802C947.931 225.705 946.872 230.439 946.872 236.004ZM1122.99 295.556C1114.35 295.556 1106.77 293.5 1100.25 289.388C1093.77 285.278 1088.71 279.525 1085.05 272.133C1081.44 264.741 1079.63 256.104 1079.63 246.22C1079.63 236.253 1081.44 227.553 1085.05 220.119C1088.71 212.685 1093.77 206.914 1100.25 202.802C1106.77 198.69 1114.35 196.635 1122.99 196.635C1131.63 196.635 1139.18 198.69 1145.66 202.802C1152.18 206.914 1157.25 212.685 1160.86 220.119C1164.52 227.553 1166.34 236.253 1166.34 246.22C1166.34 256.104 1164.52 264.741 1160.86 272.133C1157.25 279.525 1152.18 285.278 1145.66 289.388C1139.18 293.5 1131.63 295.556 1122.99 295.556ZM1122.99 282.351C1129.55 282.351 1134.95 280.668 1139.18 277.304C1143.42 273.94 1146.56 269.517 1148.59 264.035C1150.63 258.553 1151.64 252.615 1151.64 246.22C1151.64 239.825 1150.63 233.865 1148.59 228.342C1146.56 222.819 1143.42 218.354 1139.18 214.948C1134.95 211.544 1129.55 209.841 1122.99 209.841C1116.43 209.841 1111.03 211.544 1106.79 214.948C1102.56 218.354 1099.42 222.819 1097.39 228.342C1095.35 233.865 1094.33 239.825 1094.33 246.22C1094.33 252.615 1095.35 258.553 1097.39 264.035C1099.42 269.517 1102.56 273.94 1106.79 277.304C1111.03 280.668 1116.43 282.351 1122.99 282.351ZM1203.49 236.004V293.562H1188.79V197.881H1202.99V212.831H1204.24C1206.48 207.973 1209.88 204.068 1214.45 201.119C1219.02 198.13 1224.92 196.635 1232.14 196.635C1238.62 196.635 1244.29 197.964 1249.15 200.621C1254.01 203.237 1257.78 207.225 1260.48 212.581C1263.18 217.898 1264.53 224.626 1264.53 232.765V293.562H1249.83V233.761C1249.83 226.245 1247.88 220.39 1243.98 216.195C1240.07 211.959 1234.72 209.841 1227.91 209.841C1223.21 209.841 1219.02 210.858 1215.32 212.893C1211.67 214.928 1208.78 217.898 1206.66 221.802C1204.55 225.705 1203.49 230.439 1203.49 236.004Z" fill="#14191A"/>
</svg>
