<svg width="3075" height="896" viewBox="0 0 3075 896" fill="none" xmlns="http://www.w3.org/2000/svg">
<path d="M2850.43 13H224.569C216.728 13 208.887 13 200.828 13C194.076 13 187.542 13.2177 180.79 13.2177C166.197 13.653 151.604 14.5237 137.229 17.1357C122.636 19.7477 109.132 24.1011 95.8456 30.8488C82.7773 37.3788 70.798 46.0856 60.5611 56.5336C50.1064 66.764 41.3942 78.7358 34.86 91.7959C28.1081 105.074 23.752 118.569 21.1383 133.153C18.5246 147.519 17.6534 162.103 17.2178 176.686C17.2178 183.434 17 190.182 17 196.712C17 204.548 17 212.602 17 220.438V676.017C17 684.071 17 691.907 17 699.743C17 706.491 17.2178 713.021 17.4356 719.768C17.8712 734.352 18.7424 748.936 21.3561 763.302C23.9698 777.886 28.1081 791.599 35.0779 804.659C41.612 817.719 50.3242 829.473 60.7789 839.704C71.0158 850.152 82.9951 858.858 96.0634 865.388C109.35 872.136 122.853 876.49 137.446 879.102C151.822 881.714 166.632 882.584 181.008 883.02C187.542 883.455 194.076 883.673 200.828 883.673C208.887 883.673 216.728 883.673 224.569 883.673H2850.43C2858.27 883.673 2866.11 883.673 2873.95 883.673C2880.49 883.673 2887.46 883.673 2893.99 883.455C2908.59 883.02 2923.18 882.149 2937.55 879.537C2952.15 876.925 2965.65 872.571 2979.15 865.824C2992.22 859.294 3003.98 850.587 3014.44 840.139C3024.89 829.909 3033.39 817.937 3040.14 805.094C3046.89 791.817 3051.25 778.321 3053.64 763.737C3056.26 749.371 3057.13 734.788 3057.78 720.204C3057.78 713.456 3057.78 706.926 3057.78 700.178C3058 692.342 3058 684.506 3058 676.452V220.655C3058 212.602 3058 204.766 3057.78 196.93C3057.78 190.182 3057.78 183.652 3057.78 176.904C3057.35 162.32 3056.48 147.737 3053.64 133.37C3051.25 118.787 3046.89 105.291 3040.14 92.0135C3033.39 78.9534 3024.68 66.9817 3014.44 56.7513C3004.2 46.5209 2992.22 37.8142 2979.15 31.0665C2965.65 24.3187 2952.15 19.9654 2937.55 17.3534C2923.18 14.7413 2908.59 13.8707 2893.99 13.4353C2887.46 13.4353 2880.49 13.2177 2873.95 13.2177C2866.33 13 2858.27 13 2850.43 13Z" fill="#1DB954"/>
<path d="M1040.43 410.126C948.39 355.468 796.575 350.442 708.713 377.109C694.603 381.388 679.684 373.423 675.408 359.314C671.133 345.198 679.09 330.288 693.209 325.999C794.069 295.381 961.732 301.297 1067.69 364.193C1080.38 371.725 1084.55 388.115 1077.02 400.788C1069.49 413.477 1053.09 417.66 1040.43 410.126ZM1037.41 491.083C1030.96 501.562 1017.26 504.845 1006.8 498.415C930.064 451.248 813.056 437.585 722.276 465.14C710.503 468.697 698.069 462.061 694.494 450.309C690.946 438.537 697.587 426.125 709.338 422.545C813.043 391.078 941.96 406.319 1030.09 460.48C1040.55 466.923 1043.85 480.631 1037.41 491.083ZM1002.48 568.832C997.348 577.245 986.39 579.883 978.009 574.755C910.958 533.776 826.564 524.519 727.174 547.223C717.595 549.419 708.051 543.415 705.866 533.84C703.672 524.263 709.651 514.72 719.251 512.534C828.015 487.67 921.315 498.371 996.574 544.359C1004.97 549.483 1007.61 560.446 1002.48 568.832ZM871.53 156.999C713.84 156.999 586 284.832 586 442.523C586 600.229 713.84 728.058 871.53 728.058C1029.23 728.058 1157.06 600.229 1157.06 442.523C1157.06 284.832 1029.23 156.999 871.53 156.999Z" fill="white"/>
<path d="M1362.83 420.59C1313.53 408.833 1304.75 400.581 1304.75 383.248C1304.75 366.865 1320.17 355.845 1343.1 355.845C1365.34 355.845 1387.37 364.215 1410.49 381.448C1411.19 381.969 1412.06 382.177 1412.93 382.041C1413.79 381.911 1414.55 381.441 1415.06 380.725L1439.13 346.792C1440.12 345.398 1439.85 343.468 1438.51 342.401C1411.01 320.331 1380.04 309.601 1343.83 309.601C1290.6 309.601 1253.42 341.542 1253.42 387.251C1253.42 436.265 1285.5 453.618 1340.92 467.014C1388.1 477.88 1396.06 486.982 1396.06 503.259C1396.06 521.291 1379.96 532.503 1354.05 532.503C1325.28 532.503 1301.8 522.81 1275.54 500.07C1274.89 499.511 1274 499.253 1273.17 499.3C1272.31 499.372 1271.51 499.774 1270.96 500.438L1243.97 532.56C1242.84 533.894 1242.98 535.884 1244.29 537.037C1274.84 564.311 1312.41 578.719 1352.96 578.719C1410.32 578.719 1447.38 547.375 1447.38 498.867C1447.38 457.87 1422.89 435.198 1362.83 420.59Z" fill="white"/>
<path d="M1618.8 475.537C1618.8 510.155 1597.47 534.311 1566.94 534.311C1536.76 534.311 1513.99 509.058 1513.99 475.537C1513.99 442.022 1536.76 416.764 1566.94 416.764C1596.98 416.764 1618.8 441.476 1618.8 475.537ZM1577.16 371.971C1552.3 371.971 1531.91 381.764 1515.09 401.829V379.244C1515.09 377.461 1513.64 376.008 1511.86 376.008H1467.72C1465.94 376.008 1464.49 377.461 1464.49 379.244V630.197C1464.49 631.98 1465.94 633.432 1467.72 633.432H1511.86C1513.64 633.432 1515.09 631.98 1515.09 630.197V550.985C1531.91 569.86 1552.3 579.079 1577.16 579.079C1623.36 579.079 1670.12 543.517 1670.12 475.537C1670.12 407.542 1623.36 371.971 1577.16 371.971Z" fill="white"/>
<path d="M1790 534.674C1758.35 534.674 1734.49 509.248 1734.49 475.537C1734.49 441.685 1757.53 417.119 1789.27 417.119C1821.11 417.119 1845.13 442.543 1845.13 476.276C1845.13 510.125 1821.94 534.674 1790 534.674ZM1790 371.971C1730.5 371.971 1683.89 417.784 1683.89 476.276C1683.89 534.134 1730.18 579.466 1789.27 579.466C1848.97 579.466 1895.72 533.808 1895.72 475.537C1895.72 417.462 1849.29 371.971 1790 371.971Z" fill="white"/>
<path d="M2022.77 376.008H1974.19V326.344C1974.19 324.56 1972.76 323.111 1970.97 323.111H1926.84C1925.05 323.111 1923.6 324.56 1923.6 326.344V376.008H1902.37C1900.59 376.008 1899.16 377.46 1899.16 379.243V417.181C1899.16 418.963 1900.59 420.414 1902.37 420.414H1923.6V518.583C1923.6 558.254 1943.34 578.366 1982.28 578.366C1998.12 578.366 2011.25 575.096 2023.63 568.076C2024.64 567.514 2025.27 566.43 2025.27 565.277V529.15C2025.27 528.034 2024.68 526.984 2023.73 526.398C2022.77 525.795 2021.57 525.764 2020.59 526.252C2012.09 530.529 2003.86 532.505 1994.68 532.505C1980.52 532.505 1974.19 526.077 1974.19 511.665V420.414H2022.77C2024.55 420.414 2025.99 418.963 2025.99 417.181V379.243C2025.99 377.46 2024.55 376.008 2022.77 376.008Z" fill="white"/>
<path d="M2192.01 376.202V370.103C2192.01 352.158 2198.89 344.156 2214.33 344.156C2223.53 344.156 2230.92 345.983 2239.2 348.745C2240.22 349.066 2241.28 348.905 2242.11 348.295C2242.96 347.685 2243.44 346.706 2243.44 345.67V308.471C2243.44 307.049 2242.53 305.791 2241.16 305.375C2232.42 302.774 2221.23 300.1 2204.47 300.1C2163.7 300.1 2142.15 323.061 2142.15 366.475V375.817H2120.94C2119.16 375.817 2117.7 377.266 2117.7 379.049V417.181C2117.7 418.963 2119.16 420.415 2120.94 420.415H2142.15V571.834C2142.15 573.618 2143.59 575.067 2145.37 575.067H2189.51C2191.29 575.067 2192.74 573.618 2192.74 571.834V420.415H2233.96L2297.09 571.794C2289.93 587.699 2282.88 590.864 2273.26 590.864C2265.48 590.864 2257.29 588.541 2248.92 583.959C2248.13 583.525 2247.2 583.455 2246.34 583.717C2245.5 584.017 2244.79 584.641 2244.44 585.463L2229.47 618.287C2228.76 619.837 2229.37 621.659 2230.86 622.464C2246.48 630.922 2260.58 634.533 2278.01 634.533C2310.6 634.533 2328.62 619.347 2344.5 578.5L2421.09 380.608C2421.47 379.612 2421.36 378.49 2420.75 377.604C2420.14 376.731 2419.16 376.202 2418.09 376.202H2372.13C2370.76 376.202 2369.53 377.075 2369.08 378.368L2322 512.835L2270.44 378.279C2269.97 377.028 2268.76 376.202 2267.42 376.202H2192.01Z" fill="white"/>
<path d="M2093.9 376.007H2049.75C2047.97 376.007 2046.52 377.459 2046.52 379.243V571.833C2046.52 573.616 2047.97 575.065 2049.75 575.065H2093.9C2095.68 575.065 2097.13 573.616 2097.13 571.833V379.243C2097.13 377.459 2095.68 376.007 2093.9 376.007Z" fill="white"/>
<path d="M2072.05 288.315C2054.57 288.315 2040.37 302.475 2040.37 319.959C2040.37 337.457 2054.57 351.631 2072.05 351.631C2089.53 351.631 2103.71 337.457 2103.71 319.959C2103.71 302.475 2089.53 288.315 2072.05 288.315Z" fill="white"/>
<path d="M2460.58 395.165H2452.49V405.479H2460.58C2464.62 405.479 2467.03 403.504 2467.03 400.319C2467.03 396.964 2464.62 395.165 2460.58 395.165ZM2465.82 409.878L2474.61 422.182H2467.2L2459.29 410.897H2452.49V422.182H2446.29V389.571H2460.83C2468.4 389.571 2473.39 393.448 2473.39 399.973C2473.39 405.318 2470.3 408.585 2465.82 409.878ZM2458.94 378.722C2443.02 378.722 2430.98 391.368 2430.98 406.86C2430.98 422.342 2442.94 434.821 2458.77 434.821C2474.68 434.821 2486.73 422.182 2486.73 406.683C2486.73 391.201 2474.77 378.722 2458.94 378.722ZM2458.77 437.929C2441.3 437.929 2427.71 423.897 2427.71 406.86C2427.71 389.82 2441.48 375.629 2458.94 375.629C2476.4 375.629 2490 389.66 2490 406.683C2490 423.723 2476.24 437.929 2458.77 437.929Z" fill="white"/>
</svg>
