<svg width="3054" height="891" viewBox="0 0 3054 891" fill="none" xmlns="http://www.w3.org/2000/svg">
<path d="M2824.5 0H206.915C199.098 0 191.282 0 183.249 0C176.518 0 170.004 0.217119 163.274 0.217119C148.727 0.651358 134.18 1.51983 119.85 4.12526C105.303 6.7307 91.8414 11.0731 78.5971 17.8038C65.57 24.3174 53.6284 33.0021 43.4238 43.4238C33.0021 53.6284 24.3173 65.57 17.8038 78.5971C11.0731 91.8414 6.73069 105.303 4.12526 119.85C1.51983 134.18 0.651358 148.727 0.217119 163.274C0.217119 170.004 0 176.735 0 183.249C0 191.065 0 199.098 0 206.915V661.345C0 669.378 0 677.195 0 685.011C0 691.742 0.217119 698.255 0.434238 704.986C0.868477 719.533 1.73695 734.08 4.34238 748.41C6.94781 762.957 11.0731 776.635 18.0209 789.662C24.5345 802.69 33.2192 814.414 43.641 824.619C53.8456 835.04 65.7871 843.725 78.8143 850.239C92.0585 856.969 105.52 861.312 120.067 863.917C134.397 866.523 149.161 867.391 163.491 867.825C170.004 868.26 176.518 868.477 183.249 868.477C191.282 868.477 199.098 868.477 206.915 868.477H2824.5C2832.32 868.477 2840.14 868.477 2847.95 868.477C2854.47 868.477 2861.41 868.477 2867.93 868.26C2882.47 867.825 2897.02 866.957 2911.35 864.352C2925.9 861.746 2939.36 857.404 2952.82 850.673C2965.85 844.159 2977.57 835.475 2987.99 825.053C2998.42 814.848 3006.88 802.907 3013.61 790.097C3020.34 776.852 3024.69 763.391 3027.08 748.844C3029.68 734.514 3030.55 719.967 3031.2 705.42C3031.2 698.69 3031.2 692.176 3031.2 685.445C3031.42 677.629 3031.42 669.813 3031.42 661.779V207.132C3031.42 199.098 3031.42 191.282 3031.2 183.466C3031.2 176.735 3031.2 170.221 3031.2 163.491C3030.77 148.944 3029.9 134.397 3027.08 120.067C3024.69 105.52 3020.34 92.0585 3013.61 78.8143C3006.88 65.7871 2998.2 53.8456 2987.99 43.641C2977.79 33.4364 2965.85 24.7516 2952.82 18.0209C2939.36 11.2902 2925.9 6.94781 2911.35 4.34238C2897.02 1.73695 2882.47 0.868477 2867.93 0.434238C2861.41 0.434238 2854.47 0.217119 2847.95 0.217119C2840.35 0 2832.32 0 2824.5 0Z" fill="#A6A6A6"/>
<path d="M183.248 849.37C176.734 849.37 170.221 849.37 163.707 849.153C151.548 848.719 137.219 848.068 123.106 845.679C109.862 843.291 98.1372 839.383 87.0641 833.738C75.7739 828.093 65.5693 820.493 56.6674 811.592C47.7655 802.69 40.3835 792.702 34.5213 781.195C28.8762 770.339 24.968 758.397 22.7968 745.153C20.1914 730.606 19.54 715.625 19.1058 704.335C18.8887 699.775 18.8887 684.577 18.8887 684.577V183.249C18.8887 183.249 19.1058 168.267 19.1058 163.925C19.54 152.635 20.1914 137.654 22.7968 123.324C25.1851 109.862 29.0933 98.1378 34.7384 87.2819C40.6006 75.9917 47.9826 65.7871 56.8845 56.8852C65.7864 47.7662 75.991 40.3841 87.0641 34.739C98.1372 29.0939 110.079 25.1858 122.889 23.0146C137.653 20.192 152.417 19.5407 163.707 19.3236L183.248 19.1064H2847.95L2867.71 19.3236C2878.78 19.5407 2893.76 20.192 2908.09 22.7975C2921.12 25.1858 2933.06 28.8768 2944.35 34.739C2955.43 40.3841 2965.63 47.9833 2974.53 56.8852C2983.43 65.7871 2990.82 75.9917 2996.68 87.2819C3002.32 98.3549 3006.01 110.079 3008.4 123.107C3011.01 136.785 3011.66 150.898 3012.09 164.142C3012.09 170.221 3012.09 176.952 3012.09 183.466C3012.31 191.716 3012.31 199.315 3012.31 207.132V661.562C3012.31 669.378 3012.31 677.195 3012.09 685.011C3012.09 692.176 3012.09 698.472 3012.09 705.203C3011.66 718.013 3010.79 732.126 3008.4 745.37C3006.23 758.614 3002.32 770.556 2996.68 781.629C2990.82 792.919 2983.43 803.124 2974.53 811.809C2965.63 820.928 2955.43 828.31 2944.14 833.955C2932.85 839.6 2921.34 843.508 2907.88 845.896C2893.98 848.502 2879.65 849.153 2867.28 849.37C2860.98 849.587 2854.25 849.587 2847.73 849.587H2824.29L183.248 849.37Z" fill="black"/>
<path d="M2013.55 386.056C2004.52 431.933 1997.66 487.925 1994.05 511.04H1991.52C1988.63 487.202 1981.77 431.57 1972.39 386.417L1949.28 274.075H1878.87V577.146H1922.56V327.323L1926.89 350.656L1971.3 577.146H2015L2058.68 350.656L2063.37 327.188V477.371L2063.37 577.146H2107.06V274.075H2035.93L2013.55 386.056Z" fill="white"/>
<path d="M2225.14 531.632C2221.17 539.94 2212.51 545.717 2203.84 545.717C2193.73 545.717 2189.76 537.771 2189.76 518.265V355.714H2139.93V521.156C2139.93 561.972 2153.29 580.756 2182.9 580.756C2203.12 580.756 2219.37 571.725 2230.56 550.053H2231.64L2235.98 577.145H2274.97V355.714H2225.14V531.632Z" fill="white"/>
<path d="M2371.38 443.131C2355.13 431.211 2345.03 423.264 2345.03 405.923C2345.03 393.643 2350.8 386.779 2364.52 386.779C2378.6 386.779 2383.3 396.533 2383.66 429.765L2425.55 427.959C2428.79 374.136 2411.1 351.738 2365.25 351.738C2322.64 351.738 2301.69 370.886 2301.69 410.259C2301.69 446.02 2319.03 462.277 2347.19 483.588C2371.38 502.372 2385.47 512.848 2385.47 528.018C2385.47 539.578 2378.24 547.525 2365.6 547.525C2350.8 547.525 2342.14 533.438 2344.3 508.877L2302.06 509.595C2295.56 555.471 2313.97 582.202 2363.08 582.202C2406.05 582.202 2428.43 562.338 2428.43 522.602C2428.43 486.479 2410.38 472.031 2371.38 443.131Z" fill="white"/>
<path d="M2455.88 577.146H2503.55V355.715H2455.88V577.146Z" fill="white"/>
<path d="M2480.07 268.294C2461.66 268.294 2453 275.158 2453 299C2453 323.564 2461.66 329.704 2480.07 329.704C2498.85 329.704 2507.15 323.564 2507.15 299C2507.15 276.242 2498.85 268.294 2480.07 268.294Z" fill="white"/>
<path d="M2663.87 497.315L2620.17 495.147C2620.17 534.161 2615.84 546.802 2601.04 546.802C2586.23 546.802 2583.7 532.715 2583.7 486.839V443.853C2583.7 399.421 2586.59 385.333 2601.4 385.333C2615.12 385.333 2618.73 398.698 2618.73 439.88L2662.06 436.989C2664.95 402.671 2660.62 379.192 2647.25 365.826C2637.5 356.073 2622.7 351.379 2602.12 351.379C2553.73 351.379 2533.87 377.388 2533.87 450.355V481.42C2533.87 556.559 2550.85 580.756 2600.31 580.756C2621.26 580.756 2635.7 576.422 2645.45 567.031C2659.53 554.025 2664.95 531.632 2663.87 497.315Z" fill="white"/>
<path d="M1018.78 535.978C1021.55 528.75 1022.94 516.953 1022.94 500.57V431.564C1022.94 415.668 1021.55 404.05 1018.78 396.7C1016.01 389.354 1011.14 385.678 1004.16 385.678C997.411 385.678 992.657 389.354 989.893 396.7C987.121 404.05 985.741 415.668 985.741 431.564V500.57C985.741 516.953 987.058 528.75 989.71 535.978C992.357 543.2 997.17 546.814 1004.16 546.814C1011.14 546.814 1016.01 543.2 1018.78 535.978ZM962.806 570.658C952.811 563.922 945.708 553.441 941.501 539.229C937.283 525.017 935.18 506.112 935.18 482.504V450.351C935.18 426.506 937.582 407.357 942.399 392.904C947.216 378.455 954.735 367.921 964.972 361.294C975.2 354.674 988.625 351.36 1005.24 351.36C1021.61 351.36 1034.73 354.734 1044.61 361.474C1054.47 368.22 1061.69 378.759 1066.27 393.086C1070.84 407.418 1073.13 426.506 1073.13 450.351V482.504C1073.13 506.112 1070.91 525.082 1066.45 539.408C1062 553.741 1054.77 564.218 1044.78 570.841C1034.79 577.463 1021.25 580.776 1004.16 580.776C986.58 580.776 972.794 577.403 962.806 570.658Z" fill="white"/>
<path d="M1736.16 389.818C1733.64 392.951 1731.95 398.069 1731.11 405.173C1730.26 412.281 1729.85 423.056 1729.85 437.51V453.406H1766.32V437.51C1766.32 423.3 1765.83 412.523 1764.88 405.173C1763.91 397.829 1762.17 392.652 1759.64 389.638C1757.11 386.628 1753.19 385.121 1747.9 385.121C1742.6 385.121 1738.69 386.692 1736.16 389.818ZM1729.85 483.031V494.23C1729.85 508.447 1730.26 519.105 1731.11 526.208C1731.95 533.313 1733.69 538.49 1736.35 541.743C1738.99 544.995 1743.08 546.619 1748.62 546.619C1756.08 546.619 1761.2 543.728 1763.97 537.951C1766.74 532.169 1768.24 522.537 1768.49 509.043L1811.46 511.573C1811.7 513.506 1811.82 516.154 1811.82 519.524C1811.82 539.997 1806.22 555.289 1795.03 565.408C1783.83 575.522 1768 580.581 1747.54 580.581C1722.98 580.581 1705.76 572.874 1695.89 557.457C1686.02 542.047 1681.09 518.204 1681.09 485.922V447.263C1681.09 414.025 1686.2 389.761 1696.44 374.463C1706.67 359.169 1724.19 351.519 1748.98 351.519C1766.08 351.519 1779.2 354.654 1788.35 360.915C1797.5 367.182 1803.93 376.935 1807.67 390.177C1811.4 403.428 1813.27 421.737 1813.27 445.096V483.031H1729.85Z" fill="white"/>
<path d="M841.448 478.882L784.748 274.032H834.224L854.087 366.884C859.145 389.769 862.873 409.279 865.284 425.412H866.726C868.409 413.851 872.142 394.466 877.923 367.246L898.509 274.032H947.985L890.562 478.882V577.161H841.448V478.882Z" fill="white"/>
<path d="M1234.05 355.691V577.158H1195.04L1190.71 550.061H1189.63C1179.03 570.539 1163.14 580.771 1141.96 580.771C1127.27 580.771 1116.43 575.956 1109.46 566.319C1102.47 556.688 1098.98 541.636 1098.98 521.158V355.691H1148.82V518.272C1148.82 528.147 1149.9 535.191 1152.07 539.406C1154.24 543.621 1157.85 545.729 1162.9 545.729C1167.24 545.729 1171.39 544.405 1175.36 541.753C1179.34 539.106 1182.28 535.736 1184.21 531.634V355.691H1234.05Z" fill="white"/>
<path d="M1489.68 355.691V577.158H1450.68L1446.34 550.061H1445.27C1434.66 570.539 1418.77 580.771 1397.59 580.771C1382.91 580.771 1372.07 575.956 1365.09 566.319C1358.1 556.688 1354.61 541.636 1354.61 521.158V355.691H1404.45V518.272C1404.45 528.147 1405.54 535.191 1407.7 539.406C1409.87 543.621 1413.48 545.729 1418.54 545.729C1422.87 545.729 1427.02 544.405 1431 541.753C1434.97 539.106 1437.91 535.736 1439.85 531.634V355.691H1489.68Z" fill="white"/>
<path d="M1369.47 314.142H1320V577.158H1271.24V314.142H1221.77V274.039H1369.47V314.142Z" fill="white"/>
<path d="M1608.94 481.43C1608.94 497.573 1608.28 510.218 1606.95 519.365C1605.63 528.523 1603.4 535.028 1600.27 538.877C1597.14 542.735 1592.93 544.659 1587.63 544.659C1583.54 544.659 1579.75 543.696 1576.26 541.768C1572.76 539.839 1569.94 536.952 1567.77 533.095V407.366C1569.45 401.35 1572.34 396.41 1576.44 392.554C1580.53 388.704 1584.98 386.773 1589.8 386.773C1594.86 386.773 1598.77 388.761 1601.54 392.734C1604.3 396.707 1606.23 403.394 1607.31 412.786C1608.4 422.179 1608.94 435.547 1608.94 452.89V481.43ZM1654.63 391.093C1651.61 377.13 1646.74 367.013 1640 360.747C1633.26 354.486 1623.99 351.354 1612.19 351.354C1603.04 351.354 1594.5 353.945 1586.55 359.121C1578.61 364.302 1572.46 371.106 1568.13 379.536H1567.76L1567.77 262.837H1519.74V577.16H1560.91L1565.97 556.202H1567.05C1570.9 563.674 1576.67 569.57 1584.38 573.906C1592.09 578.243 1600.63 580.411 1610.02 580.411C1626.87 580.411 1639.28 572.644 1647.22 557.109C1655.17 541.573 1659.14 517.311 1659.14 484.307V449.263C1659.14 424.46 1657.63 405.068 1654.63 391.093Z" fill="white"/>
<path d="M524.39 642C645.557 642 743.781 543.736 743.781 422.52C743.781 301.303 645.557 203.039 524.39 203.039C403.224 203.039 305 301.303 305 422.52C305 543.736 403.224 642 524.39 642Z" fill="#ED1D24"/>
<path d="M524.389 289.227C450.81 289.227 391.148 348.91 391.148 422.52C391.148 496.127 450.81 555.812 524.389 555.812C597.967 555.812 657.627 496.127 657.627 422.52C657.627 348.91 597.967 289.227 524.389 289.227ZM524.389 306.943C588.095 306.943 639.919 358.785 639.919 422.52C639.919 486.252 588.095 538.096 524.389 538.096C460.681 538.096 408.858 486.252 408.858 422.52C408.858 358.785 460.681 306.943 524.389 306.943Z" fill="white"/>
<path d="M482.008 487.367L594.195 422.52L482.008 357.673V487.367Z" fill="white"/>
</svg>
